<mxfile host="65bd71144e">
    <diagram id="aOODkq5WZ-V2enEM6pfe" name="Page-1">
        <mxGraphModel dx="1126" dy="1139" grid="1" gridSize="10" guides="1" tooltips="1" connect="1" arrows="1" fold="1" page="1" pageScale="1" pageWidth="850" pageHeight="1100" math="0" shadow="0">
            <root>
                <mxCell id="0"/>
                <mxCell id="1" parent="0"/>
                <mxCell id="5" style="edgeStyle=none;html=1;exitX=0.5;exitY=1;exitDx=0;exitDy=0;entryX=0.5;entryY=0;entryDx=0;entryDy=0;fontSize=16;sketch=1;curveFitting=1;jiggle=2;rounded=1;strokeColor=#006600;" parent="1" source="2" target="4" edge="1">
                    <mxGeometry relative="1" as="geometry"/>
                </mxCell>
                <mxCell id="2" value="sum = 0&lt;div&gt;i = 1&lt;/div&gt;" style="rounded=1;whiteSpace=wrap;html=1;fontSize=16;sketch=1;curveFitting=1;jiggle=2;strokeColor=#006600;" parent="1" vertex="1">
                    <mxGeometry x="360" y="80" width="120" height="60" as="geometry"/>
                </mxCell>
                <mxCell id="10" style="edgeStyle=orthogonalEdgeStyle;html=1;entryX=1;entryY=0.5;entryDx=0;entryDy=0;elbow=vertical;fontSize=16;sketch=1;curveFitting=1;jiggle=2;rounded=1;strokeColor=#006600;" parent="1" source="4" target="9" edge="1">
                    <mxGeometry relative="1" as="geometry">
                        <mxPoint x="500" y="650" as="targetPoint"/>
                        <mxPoint x="585" y="260" as="sourcePoint"/>
                        <Array as="points">
                            <mxPoint x="600" y="220"/>
                            <mxPoint x="600" y="635"/>
                        </Array>
                    </mxGeometry>
                </mxCell>
                <mxCell id="11" value="false" style="edgeLabel;html=1;align=center;verticalAlign=middle;resizable=0;points=[];fontSize=16;rounded=1;sketch=1;curveFitting=1;jiggle=2;" parent="10" vertex="1" connectable="0">
                    <mxGeometry x="-0.9165" y="1" relative="1" as="geometry">
                        <mxPoint as="offset"/>
                    </mxGeometry>
                </mxCell>
                <mxCell id="13" style="edgeStyle=none;html=1;exitX=0.5;exitY=1;exitDx=0;exitDy=0;entryX=0.5;entryY=0;entryDx=0;entryDy=0;fontSize=16;sketch=1;curveFitting=1;jiggle=2;rounded=1;strokeColor=#006600;" parent="1" source="4" target="6" edge="1">
                    <mxGeometry relative="1" as="geometry"/>
                </mxCell>
                <mxCell id="19" value="true" style="edgeLabel;html=1;align=center;verticalAlign=middle;resizable=0;points=[];fontSize=16;rounded=1;sketch=1;curveFitting=1;jiggle=2;" parent="13" vertex="1" connectable="0">
                    <mxGeometry x="-0.3" relative="1" as="geometry">
                        <mxPoint as="offset"/>
                    </mxGeometry>
                </mxCell>
                <mxCell id="4" value="i&amp;lt;100?" style="rhombus;whiteSpace=wrap;html=1;fontSize=16;rounded=1;sketch=1;curveFitting=1;jiggle=2;strokeColor=#006600;" parent="1" vertex="1">
                    <mxGeometry x="335" y="180" width="170" height="80" as="geometry"/>
                </mxCell>
                <mxCell id="14" style="edgeStyle=orthogonalEdgeStyle;html=1;exitX=1;exitY=0.5;exitDx=0;exitDy=0;fontSize=16;sketch=1;curveFitting=1;jiggle=2;rounded=1;strokeColor=#006600;" parent="1" source="6" target="8" edge="1">
                    <mxGeometry relative="1" as="geometry">
                        <Array as="points">
                            <mxPoint x="530" y="335"/>
                            <mxPoint x="530" y="470"/>
                            <mxPoint x="420" y="470"/>
                        </Array>
                    </mxGeometry>
                </mxCell>
                <mxCell id="21" value="false" style="edgeLabel;html=1;align=center;verticalAlign=middle;resizable=0;points=[];fontSize=16;rounded=1;sketch=1;curveFitting=1;jiggle=2;" parent="14" vertex="1" connectable="0">
                    <mxGeometry x="-0.854" y="1" relative="1" as="geometry">
                        <mxPoint as="offset"/>
                    </mxGeometry>
                </mxCell>
                <mxCell id="15" style="edgeStyle=orthogonalEdgeStyle;html=1;exitX=0;exitY=0.5;exitDx=0;exitDy=0;entryX=0.5;entryY=0;entryDx=0;entryDy=0;fontSize=16;sketch=1;curveFitting=1;jiggle=2;rounded=1;strokeColor=#006600;" parent="1" source="6" target="7" edge="1">
                    <mxGeometry relative="1" as="geometry"/>
                </mxCell>
                <mxCell id="20" value="true" style="edgeLabel;html=1;align=center;verticalAlign=middle;resizable=0;points=[];fontSize=16;rounded=1;sketch=1;curveFitting=1;jiggle=2;" parent="15" vertex="1" connectable="0">
                    <mxGeometry x="-0.4087" relative="1" as="geometry">
                        <mxPoint as="offset"/>
                    </mxGeometry>
                </mxCell>
                <mxCell id="6" value="i % 6 == 0" style="rhombus;whiteSpace=wrap;html=1;fontSize=16;rounded=1;sketch=1;curveFitting=1;jiggle=2;strokeColor=#006600;" parent="1" vertex="1">
                    <mxGeometry x="360" y="300" width="120" height="70" as="geometry"/>
                </mxCell>
                <mxCell id="18" style="edgeStyle=orthogonalEdgeStyle;html=1;exitX=0.5;exitY=1;exitDx=0;exitDy=0;entryX=0.5;entryY=0;entryDx=0;entryDy=0;fontSize=16;sketch=1;curveFitting=1;jiggle=2;rounded=1;strokeColor=#006600;" parent="1" source="7" target="8" edge="1">
                    <mxGeometry relative="1" as="geometry"/>
                </mxCell>
                <mxCell id="7" value="sum=sum+i" style="rounded=1;whiteSpace=wrap;html=1;fontSize=16;sketch=1;curveFitting=1;jiggle=2;strokeColor=#006600;" parent="1" vertex="1">
                    <mxGeometry x="250" y="400" width="120" height="50" as="geometry"/>
                </mxCell>
                <mxCell id="17" style="edgeStyle=orthogonalEdgeStyle;html=1;exitX=0.5;exitY=1;exitDx=0;exitDy=0;entryX=0;entryY=0.5;entryDx=0;entryDy=0;fontSize=16;sketch=1;curveFitting=1;jiggle=2;rounded=1;strokeColor=#006600;" parent="1" source="8" target="4" edge="1">
                    <mxGeometry relative="1" as="geometry">
                        <Array as="points">
                            <mxPoint x="420" y="560"/>
                            <mxPoint x="210" y="560"/>
                            <mxPoint x="210" y="220"/>
                        </Array>
                    </mxGeometry>
                </mxCell>
                <mxCell id="8" value="i=i+1" style="rounded=1;whiteSpace=wrap;html=1;fontSize=16;sketch=1;curveFitting=1;jiggle=2;strokeColor=#006600;" parent="1" vertex="1">
                    <mxGeometry x="360" y="490" width="120" height="50" as="geometry"/>
                </mxCell>
                <mxCell id="22" style="edgeStyle=none;html=1;exitX=0.5;exitY=1;exitDx=0;exitDy=0;fontSize=16;sketch=1;curveFitting=1;jiggle=2;rounded=1;strokeColor=#006600;" parent="1" source="9" edge="1">
                    <mxGeometry relative="1" as="geometry">
                        <mxPoint x="425" y="690" as="targetPoint"/>
                    </mxGeometry>
                </mxCell>
                <mxCell id="9" value="打印sum" style="rounded=1;whiteSpace=wrap;html=1;fontSize=16;sketch=1;curveFitting=1;jiggle=2;strokeColor=#006600;" parent="1" vertex="1">
                    <mxGeometry x="365" y="610" width="120" height="50" as="geometry"/>
                </mxCell>
            </root>
        </mxGraphModel>
    </diagram>
</mxfile>